<svg id="Layer_1" data-name="Layer 1" xmlns="http://www.w3.org/2000/svg" viewBox="0 0 417.5 417.23"><defs><style>.cls-1{fill:#a43574;}.cls-2{fill:#393f4a;}.cls-3{fill:#464f5d;}.cls-4{fill:#c1272d;}.cls-5{fill:#ed1c24;}.cls-6{fill:#db55a1;}.cls-7{fill:#fff;}.cls-8{fill:#f3d55b;}</style></defs><title>course</title><path id="Shape" class="cls-1" d="M163.39,382.36,88.68,438.44a7.34,7.34,0,0,1-5.44,1.47,7.19,7.19,0,0,1-6.17-7.12v-72Z" transform="translate(-48.5 -51.45)"/><path id="Shape-2" data-name="Shape" class="cls-2" d="M163.7,173.61,53.1,132.39a6.9,6.9,0,0,1-4.6-6.49,6.6,6.6,0,0,1,4.81-6.28L252.43,52.23a15.25,15.25,0,0,1,9.63,0l199.12,67.49A6.84,6.84,0,0,1,466,126a6.72,6.72,0,0,1-4.61,6.49l-110.6,41H163.7Z" transform="translate(-48.5 -51.45)"/><path id="Shape-3" data-name="Shape" class="cls-3" d="M351,252.93V152c0-15.9-42-28.88-93.75-28.88S163.49,135.94,163.49,152v72.1Z" transform="translate(-48.5 -51.45)"/><path id="Shape-4" data-name="Shape" class="cls-4" d="M437.43,389.58v71.78a7.34,7.34,0,0,1-2.09,5.23,7.19,7.19,0,0,1-9.42.63L351.11,411Z" transform="translate(-48.5 -51.45)"/><path id="Shape-5" data-name="Shape" class="cls-5" d="M466,238.59V397.32a14.47,14.47,0,0,1-14.44,14.44H256.83a14.47,14.47,0,0,1-14.44-14.44c0-20.4-4.19,8.79,28.88-173.17H451.56A14.47,14.47,0,0,1,466,238.59Z" transform="translate(-48.5 -51.45)"/><path id="Rectangle-path" class="cls-6" d="M62.94,194.75H257.56A14.47,14.47,0,0,1,272,209.19V367.92a14.47,14.47,0,0,1-14.44,14.44H62.94A14.47,14.47,0,0,1,48.5,367.92V209.19A14.47,14.47,0,0,1,62.94,194.75Z" transform="translate(-48.5 -51.45)"/><path id="Shape-6" data-name="Shape" class="cls-7" d="M351,374.93V260.25a7.33,7.33,0,1,1,14.65-.21v115.2a7.38,7.38,0,0,1-9.1,7A7.54,7.54,0,0,1,351,374.93Z" transform="translate(-48.5 -51.45)"/><path id="Shape-7" data-name="Shape" class="cls-7" d="M408.66,382.36a7.23,7.23,0,0,1-7.22-7.22A51.93,51.93,0,0,0,394.11,344c-1.88,33.27-23,38.4-35.89,38.4a34.34,34.34,0,0,1-36-32.44,34.47,34.47,0,0,1,36-32.43c22.92,0,21.77,4.08,21.56.52a7.38,7.38,0,0,1,6-7.64,7.27,7.27,0,0,1,8.48,7.12v7.43C407,332.45,415.77,347,415.77,375a7.2,7.2,0,0,1-.31,2.09A7.1,7.1,0,0,1,408.66,382.36ZM358,332a20,20,0,0,0-21.55,18A20,20,0,0,0,358,368c19.15,0,21.56-14.75,21.56-33.58A71,71,0,0,0,358,332Z" transform="translate(-48.5 -51.45)"/><path id="Shape-8" data-name="Shape" class="cls-7" d="M387.41,282H328.82a7.32,7.32,0,1,1-.11-14.64h58.6a7.32,7.32,0,1,1,.1,14.64Z" transform="translate(-48.5 -51.45)"/><path id="Shape-9" data-name="Shape" class="cls-7" d="M221.25,346.37a7.12,7.12,0,0,1-6.38-3.88L163.49,245.6l-51.06,96.89a7.2,7.2,0,1,1-12.76-6.69L151,238.9a14.27,14.27,0,0,1,12.56-7.74,13.94,13.94,0,0,1,12.56,7.74l51.37,96.9a7.19,7.19,0,0,1-.21,7.11,7.1,7.1,0,0,1-6.07,3.46Z" transform="translate(-48.5 -51.45)"/><path id="Shape-10" data-name="Shape" class="cls-7" d="M199.07,303.26H128.44a7.42,7.42,0,0,1-7.22-5.55,7.34,7.34,0,0,1,7.12-9.1H199a7.43,7.43,0,0,1,7.22,5.54A7.35,7.35,0,0,1,199.07,303.26Z" transform="translate(-48.5 -51.45)"/><path id="Shape-11" data-name="Shape" class="cls-8" d="M451.35,188.57V125.48a7.33,7.33,0,1,1,14.65-.1v63.3a7.33,7.33,0,1,1-14.65-.11Z" transform="translate(-48.5 -51.45)"/></svg>