<?xml version="1.0" encoding="UTF-8" standalone="no"?>
<svg
   xmlns:dc="http://purl.org/dc/elements/1.1/"
   xmlns:cc="http://creativecommons.org/ns#"
   xmlns:rdf="http://www.w3.org/1999/02/22-rdf-syntax-ns#"
   xmlns:svg="http://www.w3.org/2000/svg"
   xmlns="http://www.w3.org/2000/svg"
   xmlns:sodipodi="http://sodipodi.sourceforge.net/DTD/sodipodi-0.dtd"
   xmlns:inkscape="http://www.inkscape.org/namespaces/inkscape"
   height="480pt"
   viewBox="0 -4 480 480"
   width="480pt"
   version="1.1"
   id="svg50"
   sodipodi:docname="department.svg"
   inkscape:version="0.92.3 (2405546, 2018-03-11)">
  <metadata
     id="metadata56">
    <rdf:RDF>
      <cc:Work
         rdf:about="">
        <dc:format>image/svg+xml</dc:format>
        <dc:type
           rdf:resource="http://purl.org/dc/dcmitype/StillImage" />
      </cc:Work>
    </rdf:RDF>
  </metadata>
  <defs
     id="defs54" />
  <sodipodi:namedview
     pagecolor="#ffffff"
     bordercolor="#666666"
     borderopacity="1"
     objecttolerance="10"
     gridtolerance="10"
     guidetolerance="10"
     inkscape:pageopacity="0"
     inkscape:pageshadow="2"
     inkscape:window-width="1317"
     inkscape:window-height="713"
     id="namedview52"
     showgrid="false"
     inkscape:snap-global="true"
     inkscape:zoom="0.52149125"
     inkscape:cx="-48.497236"
     inkscape:cy="200.21753"
     inkscape:window-x="49"
     inkscape:window-y="27"
     inkscape:window-maximized="1"
     inkscape:current-layer="svg50" />
  <path
     d="M 40,0 V 464 H 280 V 64 Z"
     id="path2"
     style="fill:#b7bdc5;fill-opacity:1"
     inkscape:connector-curvature="0"
     sodipodi:nodetypes="ccccc" />
  <path
     d="M 280,112 V 464 H 440 V 152 Z"
     id="path6"
     style="fill:#cccccc;fill-opacity:1"
     inkscape:connector-curvature="0"
     sodipodi:nodetypes="ccccc" />
  <path
     d="m 96,368 h 128 v 96 H 96 Z"
     id="path10"
     style="fill:#b3b3b3;fill-opacity:1"
     inkscape:connector-curvature="0"
     sodipodi:nodetypes="ccccc" />
  <path
     d="m104 288h32v32h-32zm0 0"
     fill="#f1f2f2"
     id="path14" />
  <path
     d="m184 288h32v32h-32zm0 0"
     fill="#f1f2f2"
     id="path16" />
  <path
     d="m312 304h32v32h-32zm0 0"
     fill="#2488ff"
     id="path18"
     style="fill:#ececec;fill-opacity:1" />
  <path
     d="m376 304h32v32h-32zm0 0"
     fill="#2488ff"
     id="path20"
     style="fill:#ececec;fill-opacity:1" />
  <path
     d="m312 240h32v32h-32zm0 0"
     fill="#2488ff"
     id="path22"
     style="fill:#ececec;fill-opacity:1" />
  <path
     d="m376 240h32v32h-32zm0 0"
     fill="#2488ff"
     id="path24"
     style="fill:#ececec;fill-opacity:1" />
  <path
     d="m312 176h32v32h-32zm0 0"
     fill="#2488ff"
     id="path26"
     style="fill:#ececec;fill-opacity:1" />
  <path
     d="m376 176h32v32h-32zm0 0"
     fill="#2488ff"
     id="path28"
     style="fill:#ececec;fill-opacity:1" />
  <g
     fill="#f1f2f2"
     id="g42">
    <path
       d="m104 224h32v32h-32zm0 0"
       id="path30" />
    <path
       d="m184 224h32v32h-32zm0 0"
       id="path32" />
    <path
       d="m104 160h32v32h-32zm0 0"
       id="path34" />
    <path
       d="m184 160h32v32h-32zm0 0"
       id="path36" />
    <path
       d="m104 96h32v32h-32zm0 0"
       id="path38" />
    <path
       d="m184 96h32v32h-32zm0 0"
       id="path40" />
  </g>
  <path
     d="m 328,384 h 64 v 80 h -64 z"
     id="path46"
     style="fill:#b7bdc5;fill-opacity:1"
     inkscape:connector-curvature="0"
     sodipodi:nodetypes="ccccc" />
  <path
     d="m0 456h480v16h-480zm0 0"
     fill="#21409a"
     id="path48"
     style="fill:#b3b3b3;fill-opacity:1" />
</svg>
