<?xml version="1.0" encoding="UTF-8" standalone="no"?>
<!-- Generator: Adobe Illustrator 19.0.0, SVG Export Plug-In . SVG Version: 6.00 Build 0)  -->

<svg
   xmlns:dc="http://purl.org/dc/elements/1.1/"
   xmlns:cc="http://creativecommons.org/ns#"
   xmlns:rdf="http://www.w3.org/1999/02/22-rdf-syntax-ns#"
   xmlns:svg="http://www.w3.org/2000/svg"
   xmlns="http://www.w3.org/2000/svg"
   xmlns:sodipodi="http://sodipodi.sourceforge.net/DTD/sodipodi-0.dtd"
   xmlns:inkscape="http://www.inkscape.org/namespaces/inkscape"
   version="1.1"
   id="Layer_1"
   x="0px"
   y="0px"
   viewBox="0 0 512 512"
   style="enable-background:new 0 0 512 512;"
   xml:space="preserve"
   sodipodi:docname="external_meeting.svg"
   inkscape:version="0.92.5 (2060ec1f9f, 2020-04-08)"><metadata
   id="metadata43"><rdf:RDF><cc:Work
       rdf:about=""><dc:format>image/svg+xml</dc:format><dc:type
         rdf:resource="http://purl.org/dc/dcmitype/StillImage" /></cc:Work></rdf:RDF></metadata><defs
   id="defs41">
		
	</defs><sodipodi:namedview
   pagecolor="#ffffff"
   bordercolor="#666666"
   borderopacity="1"
   objecttolerance="10"
   gridtolerance="10"
   guidetolerance="10"
   inkscape:pageopacity="0"
   inkscape:pageshadow="2"
   inkscape:window-width="1312"
   inkscape:window-height="704"
   id="namedview39"
   showgrid="false"
   inkscape:zoom="0.32593203"
   inkscape:cx="389.42106"
   inkscape:cy="90.639743"
   inkscape:window-x="54"
   inkscape:window-y="27"
   inkscape:window-maximized="1"
   inkscape:current-layer="g6" />
<g
   id="g6">
	<path
   sodipodi:nodetypes="sssss"
   inkscape:connector-curvature="0"
   style="fill:#6c6c6c;fill-opacity:1"
   id="path2"
   d="M 256,0 C 114.833,0 0,114.844 0,256 0,397.156 114.833,512 256,512 397.167,512 512,397.156 512,256 512,114.844 397.167,0 256,0 Z" />

<g
   id="g844"
   transform="translate(-35.822313,3.9696407e-6)"><path
     inkscape:connector-curvature="0"
     id="path833"
     d="m 237.75,149.33703 c -1.888,-0.0637 -3.78906,0.37183 -5.47656,1.29883 -3.438,1.875 -5.5625,5.45923 -5.5625,9.36523 v 55.28907 h 11.37695 c 10.82521,0 19.53906,8.7158 19.53906,19.54101 v 42.33594 c 0,10.82521 -8.71385,19.54101 -19.53906,19.54101 h -11.37695 v 55.29297 c 0,3.906 2.1245,7.49024 5.5625,9.36524 1.583,0.864 3.35547,1.30273 5.10547,1.30273 2,0 4.01953,-0.56422 5.76953,-1.69922 l 149.33398,-96 c 3.042,-1.959 4.89649,-5.34375 4.89649,-8.96875 0,-3.625 -1.85449,-7.01075 -4.89649,-8.96875 l -149.33398,-96 c -1.6355,-1.068 -3.51044,-1.63156 -5.39844,-1.69531 z"
     style="fill:#ffffff;fill-opacity:1" /><rect
     ry="11.881901"
     y="235.34467"
     x="186.26572"
     height="41.310654"
     width="55.005455"
     id="rect840"
     style="fill:#ffffff;fill-opacity:1;stroke:none;stroke-width:0.50810701" /></g></g>
<g
   id="g8">
</g>
<g
   id="g10">
</g>
<g
   id="g12">
</g>
<g
   id="g14">
</g>
<g
   id="g16">
</g>
<g
   id="g18">
</g>
<g
   id="g20">
</g>
<g
   id="g22">
</g>
<g
   id="g24">
</g>
<g
   id="g26">
</g>
<g
   id="g28">
</g>
<g
   id="g30">
</g>
<g
   id="g32">
</g>
<g
   id="g34">
</g>
<g
   id="g36">
</g>
</svg>