<?xml version="1.0" encoding="UTF-8" standalone="no"?>
<svg
   xmlns:dc="http://purl.org/dc/elements/1.1/"
   xmlns:cc="http://creativecommons.org/ns#"
   xmlns:rdf="http://www.w3.org/1999/02/22-rdf-syntax-ns#"
   xmlns:svg="http://www.w3.org/2000/svg"
   xmlns="http://www.w3.org/2000/svg"
   xmlns:sodipodi="http://sodipodi.sourceforge.net/DTD/sodipodi-0.dtd"
   xmlns:inkscape="http://www.inkscape.org/namespaces/inkscape"
   id="Capa_1"
   enable-background="new 0 0 512 512"
   height="512"
   viewBox="0 0 512 512"
   width="512"
   version="1.1"
   sodipodi:docname="medal.svg"
   inkscape:version="0.92.5 (2060ec1f9f, 2020-04-08)">
  <metadata
     id="metadata42">
    <rdf:RDF>
      <cc:Work
         rdf:about="">
        <dc:format>image/svg+xml</dc:format>
        <dc:type
           rdf:resource="http://purl.org/dc/dcmitype/StillImage" />
      </cc:Work>
    </rdf:RDF>
  </metadata>
  <defs
     id="defs40">
    <style
       id="style849">.cls-1{fill:#4184f3;}</style>
  </defs>
  <sodipodi:namedview
     pagecolor="#ffffff"
     bordercolor="#666666"
     borderopacity="1"
     objecttolerance="10"
     gridtolerance="10"
     guidetolerance="10"
     inkscape:pageopacity="0"
     inkscape:pageshadow="2"
     inkscape:window-width="1312"
     inkscape:window-height="704"
     id="namedview38"
     showgrid="false"
     inkscape:zoom="0.4609375"
     inkscape:cx="165.7381"
     inkscape:cy="274.08048"
     inkscape:window-x="54"
     inkscape:window-y="27"
     inkscape:window-maximized="1"
     inkscape:current-layer="Capa_1" />
  <g
     id="g846"
     transform="translate(18.440677,-32.344015)">
    <path
       inkscape:connector-curvature="0"
       style="fill:#4184f3;fill-opacity:1;stroke-width:0.87365621"
       id="path2"
       d="M 316.18838,64.688028 H 276.87385 V 242.23244 l 48.58402,-48.58402 c 2.45498,-2.46371 3.83535,-5.79234 3.83535,-9.26949 V 77.792871 c 0,-7.233874 -5.86223,-13.104843 -13.10484,-13.104843 z" />
    <path
       inkscape:connector-curvature="0"
       style="fill:#4184f3;fill-opacity:1;stroke-width:0.87365621"
       id="path4"
       d="M 145.82542,77.792871 V 184.37893 c 0,3.47715 1.38038,6.80578 3.84409,9.26949 l 48.57528,48.57528 V 64.688028 h -39.31453 c -7.23387,0 -13.10484,5.870969 -13.10484,13.104843 z" />
    <g
       transform="matrix(0.8736562,0,0,0.8736562,13.903336,64.688028)"
       id="g8">
      <path
         style="fill:#ffbb33"
         inkscape:connector-curvature="0"
         id="path6"
         d="m 256.005,272 c -24.813,0 -45,-20.187 -45,-45 v -30 c 0,-8.284 6.716,-15 15,-15 h 60 c 8.284,0 15,6.716 15,15 v 30 c 0,24.813 -20.187,45 -45,45 z m -15,-60 v 15 c 0,8.271 6.729,15 15,15 8.271,0 15,-6.729 15,-15 v -15 z" />
    </g>
    <path
       style="fill:#e68a2e;stroke-width:0.87365621"
       inkscape:connector-curvature="0"
       id="path10"
       d="M 276.87822,263.00798 V 236.7983 c 0,-7.23737 -5.86748,-13.10484 -13.10484,-13.10484 h -26.20969 v 26.20968 h 13.10484 v 13.10484 c 0,7.22601 -5.87883,13.10485 -13.10484,13.10485 v 26.20968 c 21.67803,0 39.31453,-17.63649 39.31453,-39.31453 z" />
    <g
       transform="matrix(0.8736562,0,0,0.8736562,13.903336,64.688028)"
       style="fill:#3772d4;fill-opacity:1"
       id="g14">
      <path
         inkscape:connector-curvature="0"
         style="fill:#3772d4;fill-opacity:1"
         id="path12"
         d="m 301,0 v 203.22 l -4.39,4.39 C 293.8,210.42 289.98,212 286,212 h -60 c -3.97,0 -7.79,-1.58 -10.6,-4.39 l -4.4,-4.4 V 0 Z" />
    </g>
    <g
       transform="matrix(0.8736562,0,0,0.8736562,13.903336,64.688028)"
       id="g35">
      <g
         id="Medal_2_">
        <g
           id="g32">
          <g
             id="g30">
            <path
               style="fill:#e68a2e"
               inkscape:connector-curvature="0"
               id="path18"
               d="m 397.599,353.599 -60,58.5 -81.599,-28.2 50.099,-67.8 83.101,12.001 c 5.7,0.899 10.201,4.799 12.001,10.199 1.8,5.401 0.298,11.4 -3.602,15.3 z" />
            <path
               style="fill:#ffbb33"
               inkscape:connector-curvature="0"
               id="path20"
               d="m 351.7,494.599 c 0.899,5.4 -1.199,11.1 -6,14.399 -2.401,2.101 -5.7,3.002 -8.7,3.002 -2.401,0 -4.801,-0.601 -6.901,-1.8 L 256,471.499 V 383.9 l 81.599,28.2 z" />
            <path
               style="fill:#ffe14d"
               inkscape:connector-curvature="0"
               id="path22"
               d="m 256,383.899 v 87.599 L 181.901,510.2 c -4.801,2.699 -11.102,2.399 -15.601,-1.201 -4.801,-3.3 -6.899,-9 -6,-14.399 l 14.101,-82.5 z" />
            <path
               style="fill:#ffbb33"
               inkscape:connector-curvature="0"
               id="path24"
               d="m 256,383.899 -81.599,28.2 -60,-58.5 c -3.9,-3.9 -5.402,-9.899 -3.602,-15.3 1.8,-5.4 6.301,-9.3 12.001,-10.199 l 83.101,-12.001 z" />
            <path
               style="fill:#ffe14d"
               inkscape:connector-curvature="0"
               id="path26"
               d="M 306.099,316.099 256,383.899 205.901,316.099 242.8,249.8 c 5.4,-9.6 21,-9.6 26.4,0 z" />
            <path
               style="fill:#ffbb33"
               inkscape:connector-curvature="0"
               id="path28"
               d="m 269.2,249.8 c -2.7,-4.8 -7.95,-7.2 -13.2,-7.2 v 141.299 l 50.099,-67.8 z" />
          </g>
        </g>
      </g>
    </g>
  </g>
</svg>
