<?xml version="1.0" encoding="UTF-8" standalone="no"?>
<!-- Generator: Adobe Illustrator 19.0.0, SVG Export Plug-In . SVG Version: 6.00 Build 0)  -->

<svg
   xmlns:dc="http://purl.org/dc/elements/1.1/"
   xmlns:cc="http://creativecommons.org/ns#"
   xmlns:rdf="http://www.w3.org/1999/02/22-rdf-syntax-ns#"
   xmlns:svg="http://www.w3.org/2000/svg"
   xmlns="http://www.w3.org/2000/svg"
   xmlns:sodipodi="http://sodipodi.sourceforge.net/DTD/sodipodi-0.dtd"
   xmlns:inkscape="http://www.inkscape.org/namespaces/inkscape"
   version="1.1"
   id="Layer_1"
   x="0px"
   y="0px"
   viewBox="0 0 512 512"
   style="enable-background:new 0 0 512 512;"
   xml:space="preserve"
   sodipodi:docname="play_rec.svg"
   inkscape:version="0.92.5 (2060ec1f9f, 2020-04-08)"><metadata
   id="metadata43"><rdf:RDF><cc:Work
       rdf:about=""><dc:format>image/svg+xml</dc:format><dc:type
         rdf:resource="http://purl.org/dc/dcmitype/StillImage" /></cc:Work></rdf:RDF></metadata><defs
   id="defs41" /><sodipodi:namedview
   pagecolor="#ffffff"
   bordercolor="#666666"
   borderopacity="1"
   objecttolerance="10"
   gridtolerance="10"
   guidetolerance="10"
   inkscape:pageopacity="0"
   inkscape:pageshadow="2"
   inkscape:window-width="1312"
   inkscape:window-height="704"
   id="namedview39"
   showgrid="false"
   inkscape:zoom="0.65186409"
   inkscape:cx="287.71795"
   inkscape:cy="222.03574"
   inkscape:window-x="54"
   inkscape:window-y="27"
   inkscape:window-maximized="1"
   inkscape:current-layer="g4" />
<g
   id="g6">
	<g
   id="g4"
   style="fill:#4084f3;fill-opacity:1">
		<path
   d="M 256,0 C 114.833,0 0,114.844 0,256 0,397.156 114.833,512 256,512 397.167,512 512,397.156 512,256 512,114.844 397.167,0 256,0 Z"
   id="path2"
   style="fill:#55608f;fill-opacity:1"
   inkscape:connector-curvature="0"
   sodipodi:nodetypes="sssss" /><path
   style="fill:#ffffff;fill-opacity:1;stroke-width:0.53439659"
   d="m 221.57619,198.99967 c -1.00894,-0.034 -2.02486,0.19871 -2.92665,0.69409 -1.83726,1.002 -2.97259,2.9174 -2.97259,5.00475 v 102.60415 c 0,2.08736 1.13533,4.00276 2.97259,5.00475 0.84594,0.46172 1.79314,0.69618 2.72834,0.69618 1.0688,0 2.14803,-0.30152 3.08322,-0.90806 l 79.80357,-51.30207 c 1.62563,-1.04689 2.61666,-2.85568 2.61666,-4.79287 0,-1.93719 -0.99103,-3.74652 -2.61666,-4.79287 L 224.4611,199.90565 c -0.87401,-0.57075 -1.87597,-0.8719 -2.88491,-0.90598 z"
   id="path844"
   inkscape:connector-curvature="0"
   sodipodi:nodetypes="scsscsccsccs" />
	<path
   style="fill:#ffffff;fill-opacity:1;stroke-width:1.7666707"
   d="M 234.29262,415.03627 C 147.08447,400.7784 87.289472,319.48614 100.01159,232.47909 c 5.72265,-39.13752 28.00125,-77.98461 58.94463,-102.78142 15.04159,-12.05375 42.869,-25.62867 62.23047,-30.357608 29.44721,-7.192308 65.37037,-5.004358 94.51689,5.756698 47.62267,17.58256 86.36952,59.98855 98.78342,108.1123 1.70249,6.59982 3.50467,12.16483 4.00487,12.36669 0.50017,0.20184 6.63904,-6.58518 13.64189,-15.08228 8.00961,-9.71868 14.45286,-15.88106 17.37054,-16.61335 9.41405,-2.36278 18.40129,7.50334 15.70382,17.23949 -0.64353,2.32272 -12.484,17.73814 -26.31217,34.2565 -32.59627,38.93766 -29.1043,38.28826 -61.49606,11.43634 -43.74906,-36.26685 -44.02961,-36.54302 -44.02961,-43.34057 0,-7.94338 5.17976,-13.14587 13.08838,-13.14587 4.97571,0 9.1953,2.6499 24.29172,15.25515 12.72088,10.62172 18.43377,14.42856 18.80909,12.53365 0.90749,-4.58161 -10.81868,-33.36814 -17.97654,-44.13048 -9.81512,-14.75776 -21.25383,-26.89102 -33.77537,-35.82621 -72.92779,-52.040196 -173.56887,-21.30041 -203.9934,62.30768 -15.92247,43.7557 -7.64237,93.01441 21.7602,129.45259 17.17618,21.28619 43.39046,38.29405 70.02901,45.43493 17.96383,4.81549 53.4946,4.28545 70.62227,-1.0535 24.33586,-7.58587 45.01996,-20.3934 61.3864,-38.01029 7.34625,-7.90753 10.33102,-9.92989 14.65535,-9.92989 6.65904,0 14.10301,6.87887 14.10301,13.0324 0,13.64468 -37.19753,44.32693 -68.71324,56.67785 -24.96452,9.78352 -57.17575,13.24803 -83.36454,8.96638 z"
   id="path865"
   inkscape:connector-curvature="0"
   sodipodi:nodetypes="sssssccscssssssscsssscsssss" /></g>

</g>
<g
   id="g8">
</g>
<g
   id="g10">
</g>
<g
   id="g12">
</g>
<g
   id="g14">
</g>
<g
   id="g16">
</g>
<g
   id="g18">
</g>
<g
   id="g20">
</g>
<g
   id="g22">
</g>
<g
   id="g24">
</g>
<g
   id="g26">
</g>
<g
   id="g28">
</g>
<g
   id="g30">
</g>
<g
   id="g32">
</g>
<g
   id="g34">
</g>
<g
   id="g36">
</g>
</svg>