<?xml version="1.0" encoding="UTF-8" standalone="no"?>
<!-- Generator: Adobe Illustrator 19.0.0, SVG Export Plug-In . SVG Version: 6.00 Build 0)  -->

<svg
   xmlns:dc="http://purl.org/dc/elements/1.1/"
   xmlns:cc="http://creativecommons.org/ns#"
   xmlns:rdf="http://www.w3.org/1999/02/22-rdf-syntax-ns#"
   xmlns:svg="http://www.w3.org/2000/svg"
   xmlns="http://www.w3.org/2000/svg"
   xmlns:sodipodi="http://sodipodi.sourceforge.net/DTD/sodipodi-0.dtd"
   xmlns:inkscape="http://www.inkscape.org/namespaces/inkscape"
   version="1.1"
   id="Capa_1"
   x="0px"
   y="0px"
   viewBox="0 0 467.968 467.968"
   style="enable-background:new 0 0 467.968 467.968;"
   xml:space="preserve"
   sodipodi:docname="video.svg"
   inkscape:version="0.92.5 (2060ec1f9f, 2020-04-08)"><metadata
   id="metadata49"><rdf:RDF><cc:Work
       rdf:about=""><dc:format>image/svg+xml</dc:format><dc:type
         rdf:resource="http://purl.org/dc/dcmitype/StillImage" /></cc:Work></rdf:RDF></metadata><defs
   id="defs47" /><sodipodi:namedview
   pagecolor="#ffffff"
   bordercolor="#666666"
   borderopacity="1"
   objecttolerance="10"
   gridtolerance="10"
   guidetolerance="10"
   inkscape:pageopacity="0"
   inkscape:pageshadow="2"
   inkscape:window-width="1312"
   inkscape:window-height="704"
   id="namedview45"
   showgrid="false"
   inkscape:zoom="0.504308"
   inkscape:cx="0.99145255"
   inkscape:cy="226.05233"
   inkscape:window-x="54"
   inkscape:window-y="27"
   inkscape:window-maximized="1"
   inkscape:current-layer="Capa_1" />
<g
   id="g6">
	<g
   id="g4">
		
	</g>
</g>
<g
   id="g837"
   transform="matrix(0.95238095,0,0,0.95238095,-13.408289,-3.2819297)"><path
     inkscape:connector-curvature="0"
     style="fill:#55608f;fill-opacity:1;stroke-width:0.88983053"
     id="path2"
     d="M 287.09749,126.80244 H 97.115117 c -25.057627,0 -45.559322,20.50169 -45.559322,45.55932 v 153.53492 c 0,25.05763 20.501695,45.55932 45.559322,45.55932 H 287.09749 c 25.05763,0 45.55932,-20.50169 45.55932,-45.55932 V 172.36176 c 0,-25.51322 -20.50169,-45.55932 -45.55932,-45.55932 z" /><g
     transform="matrix(0.88983051,0,0,0.88983051,51.555795,40.923118)"
     style="fill:#ff4061;fill-opacity:1"
     id="g12">
	<g
   style="fill:#a2a9bd;fill-opacity:1;stroke:none;stroke-opacity:1"
   id="g10">
		<path
   inkscape:connector-curvature="0"
   style="fill:#a2a9bd;fill-opacity:1;stroke:none;stroke-opacity:1"
   id="path8"
   d="m 430.08,124.672 c -3.072,0.512 -6.144,2.048 -8.704,3.584 l -79.872,46.08 V 293.12 l 80.384,46.08 c 14.848,8.704 33.28,3.584 41.984,-11.264 2.56,-4.608 4.096,-9.728 4.096,-15.36 V 154.368 c 0,-18.944 -17.92,-34.304 -37.888,-29.696 z" />
	</g>
</g></g>
<g
   id="g14">
</g>
<g
   id="g16">
</g>
<g
   id="g18">
</g>
<g
   id="g20">
</g>
<g
   id="g22">
</g>
<g
   id="g24">
</g>
<g
   id="g26">
</g>
<g
   id="g28">
</g>
<g
   id="g30">
</g>
<g
   id="g32">
</g>
<g
   id="g34">
</g>
<g
   id="g36">
</g>
<g
   id="g38">
</g>
<g
   id="g40">
</g>
<g
   id="g42">
</g>
</svg>